<svg width="414" height="233" viewBox="0 0 414 233" fill="none" xmlns="http://www.w3.org/2000/svg">
<path fill-rule="evenodd" clip-rule="evenodd" d="M195 2H0V42H71V227H124V42H195V2Z" fill="#1278E6"/>
<path fill-rule="evenodd" clip-rule="evenodd" d="M264 0H211V137H211.001C211 137.137 211 137.273 211 137.41C211 190.203 256.443 233 312.5 233C368.557 233 414 190.203 414 137.41C414 137.338 414 137.265 414 137.193C414 137.129 413.999 137.064 413.999 137H414V0H363V1.99145V54.473V134.423H362.862C362.953 135.574 363 136.736 363 137.908C363 163.48 340.838 184.209 313.5 184.209C286.162 184.209 264 163.48 264 137.908C264 136.736 264.047 135.574 264.138 134.423H264V53.4187V1.99145V0Z" fill="#FFDC22"/>
</svg>
