<svg xmlns="http://www.w3.org/2000/svg" width="126" height="40" viewBox="0 0 126 40" fill="none">
<path d="M13.896 24V23.748L14.376 23.652C14.712 23.58 14.88 23.384 14.88 23.064V19.788C14.88 19.228 14.88 18.668 14.88 18.108C14.88 17.548 14.876 16.988 14.868 16.428H13.92C13.664 16.428 13.476 16.496 13.356 16.632C13.236 16.768 13.116 16.96 12.996 17.208L12.576 18.096H12.24L12.3 16.068H19.188L19.248 18.096H18.912L18.492 17.208C18.372 16.96 18.252 16.768 18.132 16.632C18.012 16.496 17.824 16.428 17.568 16.428H16.608V23.064C16.608 23.392 16.776 23.588 17.112 23.652L17.604 23.748V24H13.896ZM19.7643 24V23.748L20.0043 23.676C20.1643 23.62 20.2683 23.548 20.3163 23.46C20.3723 23.364 20.4003 23.232 20.4003 23.064V17.004C20.4003 16.836 20.3723 16.708 20.3163 16.62C20.2683 16.524 20.1643 16.448 20.0043 16.392L19.7643 16.32V16.068H22.7643V16.32L22.5243 16.392C22.3723 16.448 22.2683 16.524 22.2123 16.62C22.1563 16.708 22.1283 16.836 22.1283 17.004V23.064C22.1283 23.232 22.1563 23.364 22.2123 23.46C22.2683 23.548 22.3723 23.62 22.5243 23.676L22.7643 23.748V24H19.7643ZM23.2911 24V23.736L23.5311 23.664C23.6831 23.616 23.7871 23.54 23.8431 23.436C23.8991 23.324 23.9271 23.18 23.9271 23.004V17.064C23.9271 16.904 23.9071 16.776 23.8671 16.68C23.8271 16.576 23.7271 16.496 23.5671 16.44L23.2911 16.332V16.068H25.5831L27.8391 21.936L29.9631 16.068H32.3031V16.332L32.1111 16.392C31.9591 16.44 31.8551 16.516 31.7991 16.62C31.7431 16.716 31.7151 16.844 31.7151 17.004C31.7071 17.468 31.7031 17.932 31.7031 18.396C31.7031 18.852 31.7031 19.316 31.7031 19.788V20.28C31.7031 20.744 31.7031 21.208 31.7031 21.672C31.7031 22.136 31.7071 22.596 31.7151 23.052C31.7151 23.22 31.7351 23.348 31.7751 23.436C31.8151 23.524 31.9111 23.596 32.0631 23.652L32.3031 23.736V24H29.3871V23.736L29.6511 23.652C29.8031 23.596 29.8951 23.524 29.9271 23.436C29.9671 23.34 29.9871 23.212 29.9871 23.052V20.448L30.0111 17.232L27.5631 24H26.8911L24.3111 17.304L24.3591 20.04V23.016C24.3591 23.192 24.3831 23.332 24.4311 23.436C24.4791 23.54 24.5791 23.612 24.7311 23.652L24.9711 23.736V24H23.2911ZM32.8541 24V23.748L33.0941 23.664C33.2381 23.624 33.3381 23.556 33.3941 23.46C33.4501 23.356 33.4821 23.216 33.4901 23.04V17.004C33.4821 16.836 33.4541 16.708 33.4061 16.62C33.3581 16.524 33.2581 16.452 33.1061 16.404L32.8541 16.32V16.068H38.5661L38.6501 17.988H38.3141L37.8341 16.908C37.7701 16.756 37.6981 16.64 37.6181 16.56C37.5381 16.472 37.4181 16.428 37.2581 16.428H35.2181C35.2101 16.924 35.2061 17.436 35.2061 17.964C35.2061 18.484 35.2061 19.072 35.2061 19.728H36.3941C36.5541 19.728 36.6741 19.688 36.7541 19.608C36.8421 19.52 36.9221 19.404 36.9941 19.26L37.1981 18.804H37.4621V21.024H37.1981L36.9821 20.568C36.9181 20.424 36.8461 20.308 36.7661 20.22C36.6861 20.132 36.5661 20.088 36.4061 20.088H35.2061C35.2061 20.664 35.2061 21.16 35.2061 21.576C35.2061 21.992 35.2061 22.364 35.2061 22.692C35.2141 23.012 35.2181 23.328 35.2181 23.64H37.5221C37.6821 23.64 37.8061 23.6 37.8941 23.52C37.9821 23.432 38.0541 23.312 38.1101 23.16L38.5541 22.08H38.8901L38.8061 24H32.8541ZM42.0547 24.204C41.6147 24.204 41.1667 24.148 40.7107 24.036C40.2627 23.932 39.8867 23.792 39.5827 23.616L39.6547 21.948H40.0027L40.3747 22.776C40.4867 23.008 40.6027 23.2 40.7227 23.352C40.8427 23.504 41.0027 23.62 41.2027 23.7C41.3387 23.756 41.4667 23.796 41.5867 23.82C41.7147 23.836 41.8547 23.844 42.0067 23.844C42.4947 23.844 42.8787 23.72 43.1587 23.472C43.4467 23.216 43.5907 22.88 43.5907 22.464C43.5907 22.088 43.4907 21.792 43.2907 21.576C43.0987 21.36 42.7867 21.152 42.3547 20.952L41.8627 20.736C41.1907 20.44 40.6587 20.096 40.2667 19.704C39.8827 19.312 39.6907 18.792 39.6907 18.144C39.6907 17.664 39.8107 17.256 40.0507 16.92C40.2987 16.576 40.6387 16.312 41.0707 16.128C41.5027 15.944 42.0067 15.852 42.5827 15.852C43.0067 15.852 43.4027 15.908 43.7707 16.02C44.1467 16.132 44.4747 16.284 44.7547 16.476L44.6707 17.964H44.3227L43.8787 17.064C43.7507 16.8 43.6267 16.612 43.5067 16.5C43.3947 16.38 43.2547 16.304 43.0867 16.272C42.9907 16.256 42.9067 16.244 42.8347 16.236C42.7707 16.228 42.6827 16.224 42.5707 16.224C42.1787 16.224 41.8387 16.34 41.5507 16.572C41.2707 16.796 41.1307 17.108 41.1307 17.508C41.1307 17.892 41.2387 18.204 41.4547 18.444C41.6707 18.684 41.9827 18.896 42.3907 19.08L42.9307 19.308C43.7067 19.644 44.2627 20.004 44.5987 20.388C44.9347 20.764 45.1027 21.248 45.1027 21.84C45.1027 22.544 44.8347 23.116 44.2987 23.556C43.7707 23.988 43.0227 24.204 42.0547 24.204ZM52.102 24.204C51.614 24.204 51.146 24.116 50.698 23.94C50.25 23.764 49.846 23.504 49.486 23.16C49.134 22.808 48.854 22.372 48.646 21.852C48.438 21.332 48.334 20.724 48.334 20.028C48.334 19.348 48.438 18.748 48.646 18.228C48.854 17.708 49.134 17.272 49.486 16.92C49.846 16.568 50.25 16.304 50.698 16.128C51.154 15.944 51.622 15.852 52.102 15.852C52.582 15.852 53.046 15.94 53.494 16.116C53.95 16.292 54.354 16.556 54.706 16.908C55.058 17.252 55.338 17.684 55.546 18.204C55.754 18.724 55.858 19.332 55.858 20.028C55.858 20.708 55.754 21.308 55.546 21.828C55.338 22.348 55.058 22.784 54.706 23.136C54.354 23.488 53.954 23.756 53.506 23.94C53.058 24.116 52.59 24.204 52.102 24.204ZM52.102 23.844C52.558 23.844 52.926 23.728 53.206 23.496C53.486 23.256 53.69 22.856 53.818 22.296C53.946 21.736 54.01 20.98 54.01 20.028C54.01 19.076 53.946 18.324 53.818 17.772C53.69 17.212 53.486 16.816 53.206 16.584C52.926 16.344 52.558 16.224 52.102 16.224C51.654 16.224 51.286 16.344 50.998 16.584C50.718 16.816 50.514 17.212 50.386 17.772C50.258 18.324 50.194 19.076 50.194 20.028C50.194 20.98 50.258 21.736 50.386 22.296C50.514 22.856 50.718 23.256 50.998 23.496C51.286 23.728 51.654 23.844 52.102 23.844ZM56.1744 24V23.748L56.4024 23.688C56.5624 23.64 56.6664 23.568 56.7144 23.472C56.7624 23.376 56.7904 23.244 56.7984 23.076C56.8064 22.62 56.8104 22.16 56.8104 21.696C56.8104 21.224 56.8104 20.752 56.8104 20.28V19.788C56.8104 19.324 56.8104 18.86 56.8104 18.396C56.8104 17.932 56.8064 17.468 56.7984 17.004C56.7904 16.836 56.7664 16.708 56.7264 16.62C56.6864 16.524 56.5904 16.452 56.4384 16.404L56.1744 16.32V16.068H61.9464L62.0304 18.096H61.7064L61.0824 16.908C61.0024 16.756 60.9144 16.64 60.8184 16.56C60.7224 16.472 60.5824 16.428 60.3984 16.428H58.5504C58.5424 16.964 58.5344 17.516 58.5264 18.084C58.5264 18.644 58.5264 19.204 58.5264 19.764H59.6784C59.8624 19.764 59.9984 19.724 60.0864 19.644C60.1744 19.556 60.2584 19.436 60.3384 19.284L60.5784 18.84H60.8424V21.036H60.5784L60.3384 20.604C60.2504 20.444 60.1624 20.324 60.0744 20.244C59.9944 20.156 59.8624 20.112 59.6784 20.112H58.5264C58.5264 20.64 58.5264 21.148 58.5264 21.636C58.5264 22.116 58.5304 22.588 58.5384 23.052C58.5384 23.38 58.6864 23.584 58.9824 23.664L59.3424 23.748V24H56.1744ZM69.0128 24.204C68.4128 24.204 67.8808 24.096 67.4168 23.88C66.9608 23.664 66.6008 23.324 66.3368 22.86C66.0808 22.388 65.9528 21.768 65.9528 21V19.704C65.9528 19.256 65.9528 18.804 65.9528 18.348C65.9528 17.892 65.9488 17.432 65.9408 16.968C65.9408 16.656 65.7928 16.46 65.4968 16.38L65.2328 16.32V16.068H68.4728V16.32L68.1367 16.392C67.8328 16.464 67.6808 16.664 67.6808 16.992C67.6728 17.44 67.6688 17.892 67.6688 18.348C67.6688 18.796 67.6688 19.248 67.6688 19.704V21.228C67.6688 22.004 67.8248 22.564 68.1367 22.908C68.4568 23.252 68.9088 23.424 69.4928 23.424C70.1088 23.424 70.5888 23.24 70.9328 22.872C71.2848 22.496 71.4608 21.94 71.4608 21.204V17.028C71.4608 16.868 71.4288 16.728 71.3648 16.608C71.3008 16.488 71.1888 16.412 71.0287 16.38L70.7408 16.32V16.068H72.5888V16.32L72.2528 16.392C72.1008 16.424 71.9968 16.496 71.9408 16.608C71.8848 16.72 71.8568 16.856 71.8568 17.016V21.132C71.8568 22.124 71.5968 22.884 71.0768 23.412C70.5568 23.94 69.8688 24.204 69.0128 24.204ZM72.9323 24V23.748L73.1843 23.676C73.3443 23.628 73.4483 23.556 73.4963 23.46C73.5443 23.364 73.5683 23.236 73.5683 23.076V17.004C73.5683 16.836 73.5403 16.708 73.4843 16.62C73.4363 16.524 73.3323 16.452 73.1723 16.404L72.9323 16.32V16.068H75.8483V16.32L75.5963 16.404C75.4443 16.444 75.3443 16.512 75.2963 16.608C75.2483 16.704 75.2243 16.836 75.2243 17.004V23.088C75.2243 23.248 75.2523 23.376 75.3083 23.472C75.3643 23.56 75.4683 23.628 75.6203 23.676L75.8483 23.748V24H72.9323ZM77.3003 24V23.748L77.4443 23.712C77.5963 23.672 77.6763 23.596 77.6843 23.484C77.6923 23.372 77.6403 23.244 77.5283 23.1L75.2363 19.92L78.1643 16.944C78.2843 16.824 78.3483 16.716 78.3563 16.62C78.3723 16.516 78.3003 16.436 78.1403 16.38L77.9363 16.32V16.068H79.8323V16.32L79.5203 16.404C79.3363 16.46 79.1883 16.528 79.0763 16.608C78.9643 16.68 78.8363 16.792 78.6923 16.944L76.5563 19.116L79.3043 23.04C79.4323 23.216 79.5523 23.356 79.6643 23.46C79.7843 23.564 79.9443 23.644 80.1443 23.7L80.3123 23.748V24H77.3003ZM80.7135 24V23.748L80.9655 23.676C81.1255 23.628 81.2255 23.56 81.2655 23.472C81.3135 23.376 81.3375 23.244 81.3375 23.076C81.3455 22.612 81.3495 22.148 81.3495 21.684C81.3495 21.22 81.3495 20.752 81.3495 20.28V19.788C81.3495 19.324 81.3495 18.86 81.3495 18.396C81.3495 17.932 81.3455 17.468 81.3375 17.004C81.3375 16.836 81.3175 16.708 81.2775 16.62C81.2375 16.524 81.1375 16.452 80.9775 16.404L80.7135 16.32V16.068H84.0735C85.0095 16.068 85.7295 16.248 86.2335 16.608C86.7455 16.96 87.0015 17.456 87.0015 18.096C87.0015 18.448 86.8615 18.804 86.5815 19.164C86.3095 19.524 85.8895 19.8 85.3215 19.992L86.9535 23.172C87.0895 23.436 87.3015 23.616 87.5895 23.712L87.8175 23.76V24H85.6935L83.9055 20.256H83.0415C83.0415 20.824 83.0415 21.336 83.0415 21.792C83.0415 22.248 83.0455 22.676 83.0535 23.076C83.0535 23.236 83.0775 23.364 83.1255 23.46C83.1815 23.556 83.2855 23.624 83.4375 23.664L83.7255 23.748V24H80.7135ZM83.0415 19.908H83.6895C84.2575 19.908 84.6735 19.764 84.9375 19.476C85.2015 19.188 85.3335 18.748 85.3335 18.156C85.3335 17.564 85.2055 17.128 84.9495 16.848C84.7015 16.56 84.2975 16.416 83.7375 16.416H83.0535C83.0535 16.728 83.0495 17.048 83.0415 17.376C83.0415 17.696 83.0415 18.06 83.0415 18.468C83.0415 18.868 83.0415 19.348 83.0415 19.908ZM88.1387 24V23.748L88.4627 23.652C88.6307 23.604 88.7587 23.532 88.8467 23.436C88.9427 23.34 89.0187 23.208 89.0747 23.04L91.4987 16.032H92.4947L94.9067 23.088C94.9707 23.264 95.0427 23.4 95.1227 23.496C95.2027 23.584 95.3307 23.656 95.5067 23.712L95.6867 23.76V24H92.6387V23.76L92.8427 23.7C93.0187 23.644 93.1227 23.556 93.1547 23.436C93.1947 23.316 93.1867 23.168 93.1307 22.992L92.6267 21.444H89.9747L89.4587 22.968C89.4027 23.144 89.3867 23.288 89.4107 23.4C89.4347 23.512 89.5347 23.6 89.7107 23.664L89.9747 23.748V24H88.1387ZM90.0947 21.096H92.5187L91.3427 17.484L90.0947 21.096ZM96.0651 24V23.748L96.3051 23.676C96.4651 23.62 96.5691 23.548 96.6171 23.46C96.6731 23.364 96.7011 23.232 96.7011 23.064V17.004C96.7011 16.836 96.6731 16.708 96.6171 16.62C96.5691 16.524 96.4651 16.448 96.3051 16.392L96.0651 16.32V16.068H99.0651V16.32L98.8251 16.392C98.6731 16.448 98.5691 16.524 98.5131 16.62C98.4571 16.708 98.4291 16.836 98.4291 17.004V23.064C98.4291 23.232 98.4571 23.364 98.5131 23.46C98.5691 23.548 98.6731 23.62 98.8251 23.676L99.0651 23.748V24H96.0651ZM99.7598 24V23.748L100.108 23.652C100.26 23.612 100.364 23.536 100.42 23.424C100.484 23.312 100.516 23.176 100.516 23.016V17.208C100.444 17.056 100.38 16.944 100.324 16.872C100.276 16.792 100.224 16.724 100.168 16.668C100.112 16.612 100.036 16.548 99.9398 16.476L99.7238 16.32V16.068H101.776L105.76 21.516V17.064C105.76 16.904 105.732 16.764 105.676 16.644C105.628 16.524 105.524 16.444 105.364 16.404L105.004 16.32V16.068H106.792V16.32L106.492 16.404C106.34 16.452 106.244 16.536 106.204 16.656C106.172 16.768 106.156 16.904 106.156 17.064V24.048H105.484L100.912 17.76V23.004C100.912 23.172 100.936 23.312 100.984 23.424C101.032 23.536 101.132 23.612 101.284 23.652L101.608 23.748V24H99.7598ZM107.374 24V23.748L107.614 23.664C107.758 23.624 107.858 23.556 107.914 23.46C107.97 23.356 108.002 23.216 108.01 23.04V17.004C108.002 16.836 107.974 16.708 107.926 16.62C107.878 16.524 107.778 16.452 107.626 16.404L107.374 16.32V16.068H113.086L113.17 17.988H112.834L112.354 16.908C112.29 16.756 112.218 16.64 112.138 16.56C112.058 16.472 111.938 16.428 111.778 16.428H109.738C109.73 16.924 109.726 17.436 109.726 17.964C109.726 18.484 109.726 19.072 109.726 19.728H110.914C111.074 19.728 111.194 19.688 111.274 19.608C111.362 19.52 111.442 19.404 111.514 19.26L111.718 18.804H111.982V21.024H111.718L111.502 20.568C111.438 20.424 111.366 20.308 111.286 20.22C111.206 20.132 111.086 20.088 110.926 20.088H109.726C109.726 20.664 109.726 21.16 109.726 21.576C109.726 21.992 109.726 22.364 109.726 22.692C109.734 23.012 109.738 23.328 109.738 23.64H112.042C112.202 23.64 112.326 23.6 112.414 23.52C112.502 23.432 112.574 23.312 112.63 23.16L113.074 22.08H113.41L113.326 24H107.374Z" fill="black"/>
</svg>