<svg width="340" height="109" viewBox="0 0 340 109" fill="none" xmlns="http://www.w3.org/2000/svg">
<path d="M56.75 48.9716V45.5455H71.5028V48.9716H66.2102V63H62.0511V48.9716H56.75ZM77.782 45.5455V63H73.5632V45.5455H77.782ZM80.4304 45.5455H85.6548L90.0866 56.3523H90.2912L94.723 45.5455H99.9474V63H95.8395V52.2784H95.6946L91.5014 62.8892H88.8764L84.6832 52.2188H84.5384V63H80.4304V45.5455ZM102.579 63V45.5455H114.749V48.9716H106.798V52.5511H114.127V55.9858H106.798V59.5739H114.749V63H102.579ZM126.826 50.7784C126.769 50.1534 126.516 49.6676 126.067 49.321C125.624 48.9688 124.991 48.7926 124.167 48.7926C123.621 48.7926 123.167 48.8636 122.803 49.0057C122.44 49.1477 122.167 49.3438 121.985 49.5938C121.803 49.8381 121.71 50.1193 121.704 50.4375C121.692 50.6989 121.744 50.929 121.857 51.1278C121.977 51.3267 122.147 51.5028 122.369 51.6562C122.596 51.804 122.869 51.9347 123.187 52.0483C123.505 52.1619 123.863 52.2614 124.261 52.3466L125.761 52.6875C126.624 52.875 127.386 53.125 128.045 53.4375C128.71 53.75 129.266 54.1222 129.715 54.554C130.17 54.9858 130.513 55.483 130.746 56.0455C130.979 56.608 131.099 57.2386 131.104 57.9375C131.099 59.0398 130.82 59.9858 130.269 60.7756C129.718 61.5653 128.925 62.1705 127.891 62.5909C126.863 63.0114 125.621 63.2216 124.167 63.2216C122.707 63.2216 121.434 63.0028 120.349 62.5653C119.263 62.1278 118.42 61.4631 117.817 60.571C117.215 59.679 116.906 58.5511 116.888 57.1875H120.928C120.962 57.75 121.113 58.2188 121.38 58.5938C121.647 58.9688 122.013 59.2528 122.479 59.446C122.951 59.6392 123.496 59.7358 124.116 59.7358C124.684 59.7358 125.167 59.6591 125.565 59.5057C125.968 59.3523 126.278 59.1392 126.494 58.8665C126.71 58.5937 126.82 58.2812 126.826 57.929C126.82 57.5994 126.718 57.3182 126.519 57.0852C126.32 56.8466 126.013 56.642 125.599 56.4716C125.19 56.2955 124.667 56.1335 124.031 55.9858L122.207 55.5597C120.695 55.2131 119.505 54.6534 118.636 53.8807C117.766 53.1023 117.335 52.0511 117.34 50.7273C117.335 49.6477 117.624 48.7017 118.21 47.8892C118.795 47.0767 119.604 46.4432 120.638 45.9886C121.673 45.5341 122.852 45.3068 124.175 45.3068C125.528 45.3068 126.701 45.5369 127.695 45.9972C128.695 46.4517 129.471 47.0909 130.022 47.9148C130.573 48.7386 130.854 49.6932 130.866 50.7784H126.826ZM154.866 54.2727C154.866 56.1932 154.496 57.821 153.758 59.1562C153.019 60.4915 152.019 61.5057 150.758 62.1989C149.502 62.892 148.093 63.2386 146.531 63.2386C144.962 63.2386 143.55 62.8892 142.295 62.1903C141.039 61.4915 140.042 60.4773 139.303 59.1477C138.57 57.8125 138.204 56.1875 138.204 54.2727C138.204 52.3523 138.57 50.7244 139.303 49.3892C140.042 48.054 141.039 47.0398 142.295 46.3466C143.55 45.6534 144.962 45.3068 146.531 45.3068C148.093 45.3068 149.502 45.6534 150.758 46.3466C152.019 47.0398 153.019 48.054 153.758 49.3892C154.496 50.7244 154.866 52.3523 154.866 54.2727ZM150.553 54.2727C150.553 53.1364 150.391 52.1761 150.067 51.392C149.749 50.608 149.289 50.0142 148.687 49.6108C148.09 49.2074 147.371 49.0057 146.531 49.0057C145.695 49.0057 144.977 49.2074 144.374 49.6108C143.772 50.0142 143.309 50.608 142.985 51.392C142.667 52.1761 142.508 53.1364 142.508 54.2727C142.508 55.4091 142.667 56.3693 142.985 57.1534C143.309 57.9375 143.772 58.5312 144.374 58.9347C144.977 59.3381 145.695 59.5398 146.531 59.5398C147.371 59.5398 148.09 59.3381 148.687 58.9347C149.289 58.5312 149.749 57.9375 150.067 57.1534C150.391 56.3693 150.553 55.4091 150.553 54.2727ZM157.329 63V45.5455H169.244V48.9716H161.548V52.5511H168.485V55.9858H161.548V63H157.329ZM187.084 45.5455H191.294V56.804C191.294 58.1051 190.984 59.2386 190.365 60.2045C189.746 61.1648 188.882 61.9091 187.774 62.4375C186.666 62.9602 185.379 63.2216 183.913 63.2216C182.43 63.2216 181.135 62.9602 180.027 62.4375C178.919 61.9091 178.058 61.1648 177.445 60.2045C176.831 59.2386 176.524 58.1051 176.524 56.804V45.5455H180.743V56.4375C180.743 57.0398 180.874 57.5767 181.135 58.0483C181.402 58.5199 181.774 58.8892 182.251 59.1562C182.729 59.4233 183.283 59.5568 183.913 59.5568C184.544 59.5568 185.095 59.4233 185.567 59.1562C186.044 58.8892 186.416 58.5199 186.683 58.0483C186.95 57.5767 187.084 57.0398 187.084 56.4375V45.5455ZM193.938 63V45.5455H198.157V52.9261H198.387L204.157 45.5455H209.126L202.938 53.3352L209.237 63H204.191L199.844 56.1392L198.157 58.2699V63H193.938ZM210.79 63V45.5455H218C219.307 45.5455 220.435 45.7812 221.384 46.2528C222.338 46.7187 223.074 47.3892 223.591 48.2642C224.108 49.1335 224.366 50.1648 224.366 51.358C224.366 52.5682 224.102 53.5966 223.574 54.4432C223.045 55.2841 222.295 55.9261 221.324 56.3693C220.352 56.8068 219.202 57.0256 217.872 57.0256H213.312V53.7017H217.088C217.724 53.7017 218.256 53.6193 218.682 53.4545C219.114 53.2841 219.44 53.0284 219.662 52.6875C219.884 52.3409 219.994 51.8977 219.994 51.358C219.994 50.8182 219.884 50.3722 219.662 50.0199C219.44 49.6619 219.114 49.3949 218.682 49.2188C218.25 49.0369 217.719 48.946 217.088 48.946H215.009V63H210.79ZM220.616 55.0227L224.963 63H220.361L216.099 55.0227H220.616ZM230.456 63H225.922L231.811 45.5455H237.428L243.317 63H238.783L234.683 49.9432H234.547L230.456 63ZM229.851 56.1307H239.328V59.3352H229.851V56.1307ZM249.415 45.5455V63H245.196V45.5455H249.415ZM266.918 45.5455V63H263.339L256.393 52.9261H256.282V63H252.063V45.5455H255.694L262.563 55.6023H262.708V45.5455H266.918ZM269.571 63V45.5455H281.741V48.9716H273.79V52.5511H281.119V55.9858H273.79V59.5739H281.741V63H269.571Z" fill="#6F6F6F"/>
</svg>
